<?xml version="1.0" encoding="UTF-8" standalone="no"?>
<!DOCTYPE svg PUBLIC "-//W3C//DTD SVG 1.1//EN" "http://www.w3.org/Graphics/SVG/1.1/DTD/svg11.dtd">
<svg width="100%" height="100%" viewBox="0 0 1175 200" version="1.1" xmlns="http://www.w3.org/2000/svg" xmlns:xlink="http://www.w3.org/1999/xlink" xml:space="preserve" xmlns:serif="http://www.serif.com/" style="fill-rule:evenodd;clip-rule:evenodd;stroke-linejoin:round;stroke-miterlimit:2;">
    <g transform="matrix(0.978869,0,0,1.67785,-129.788,-65.9364)">
        <path d="M147.828,139.691L147.828,58.105L188.856,58.105C197.258,58.105 204.067,59.012 209.281,60.826C214.496,62.64 218.343,65.269 220.824,68.713C223.305,72.157 224.546,76.332 224.546,81.238C224.546,86.576 222.998,90.866 219.903,94.108C216.808,97.351 212.461,99.716 206.861,101.203C201.262,102.69 194.664,103.434 187.068,103.434L173.218,103.434L173.218,139.691L147.828,139.691ZM173.218,92.988L182.908,92.988C187.598,92.988 191.228,92.602 193.797,91.829C196.366,91.055 198.148,89.806 199.143,88.081C200.139,86.355 200.637,84.039 200.637,81.131C200.637,78.173 200.266,75.782 199.525,73.961C198.784,72.14 197.157,70.791 194.644,69.916C192.131,69.04 188.217,68.602 182.902,68.602L173.218,68.602L173.218,92.988Z" style="fill:white;fill-rule:nonzero;"/>
        <path d="M255.906,140.601C248.658,140.601 242.652,139.815 237.888,138.242C233.124,136.669 229.583,134.375 227.265,131.36C224.947,128.345 223.788,124.69 223.788,120.395L223.788,100.769C223.788,96.474 224.947,92.819 227.265,89.804C229.583,86.789 233.124,84.495 237.888,82.922C242.652,81.35 248.658,80.563 255.906,80.563C263.153,80.563 269.145,81.35 273.88,82.922C278.615,84.495 282.157,86.789 284.506,89.804C286.855,92.819 288.029,96.474 288.029,100.769L288.029,120.395C288.029,124.69 286.855,128.345 284.506,131.36C282.157,134.375 278.615,136.669 273.88,138.242C269.145,139.815 263.153,140.601 255.906,140.601ZM255.995,131.136C258.671,131.136 260.624,130.696 261.855,129.817C263.086,128.938 263.875,127.751 264.222,126.255C264.57,124.759 264.743,123.11 264.743,121.308L264.743,99.905C264.743,98.07 264.57,96.413 264.222,94.934C263.875,93.454 263.086,92.267 261.855,91.371C260.624,90.476 258.671,90.028 255.995,90.028C253.317,90.028 251.349,90.476 250.091,91.371C248.833,92.267 248.016,93.454 247.639,94.934C247.262,96.413 247.074,98.07 247.074,99.905L247.074,121.308C247.074,123.11 247.262,124.759 247.639,126.255C248.016,127.751 248.833,128.938 250.091,129.817C251.349,130.696 253.317,131.136 255.995,131.136Z" style="fill:white;fill-rule:nonzero;"/>
        <path d="M299.235,139.643L299.235,58.056L322.162,58.056L322.162,104.938L345.71,81.473L371.194,81.473L347.447,104.808L370.771,139.691L346.149,139.691L329.465,110.969L322.162,117.434L322.162,139.643L299.235,139.643Z" style="fill:white;fill-rule:nonzero;"/>
        <path d="M402.306,140.601C394.776,140.601 388.644,139.781 383.909,138.14C379.175,136.499 375.692,134.088 373.459,130.907C371.226,127.726 370.11,123.86 370.11,119.309L370.11,101.855C370.11,97.204 371.24,93.305 373.501,90.158C375.761,87.011 379.288,84.625 384.079,83C388.871,81.376 394.947,80.563 402.306,80.563C410.174,80.563 416.331,81.432 420.777,83.169C425.222,84.906 428.39,87.437 430.28,90.764C432.171,94.09 433.116,98.129 433.116,102.878L433.116,111.199L393.396,111.199L393.396,122.623C393.396,124.523 393.725,126.073 394.383,127.273C395.041,128.473 396.042,129.347 397.384,129.897C398.727,130.446 400.395,130.721 402.39,130.721C404.438,130.721 406.093,130.438 407.353,129.874C408.614,129.309 409.533,128.47 410.11,127.356C410.687,126.242 410.976,124.849 410.976,123.179L410.976,118.302L433.032,118.302L433.032,122.285C433.032,128.162 430.487,132.683 425.396,135.85C420.306,139.017 412.609,140.601 402.306,140.601ZM393.396,104.422L410.976,104.422L410.976,98.871C410.976,96.905 410.701,95.299 410.152,94.052C409.603,92.806 408.698,91.893 407.437,91.313C406.176,90.733 404.408,90.444 402.133,90.444C399.972,90.444 398.263,90.743 397.006,91.341C395.75,91.939 394.834,92.952 394.259,94.38C393.683,95.809 393.396,97.803 393.396,100.363L393.396,104.422Z" style="fill:white;fill-rule:nonzero;"/>
        <path d="M445.212,139.691L445.212,81.473L468.676,81.473L468.676,90.459C472.122,87.005 475.567,84.527 479.012,83.023C482.457,81.52 486.259,80.768 490.419,80.768C491.116,80.768 491.741,80.776 492.292,80.794C492.843,80.811 493.435,80.871 494.066,80.972L494.066,95.145C492.744,94.809 491.25,94.523 489.585,94.288C487.92,94.053 486.196,93.936 484.414,93.936C481.358,93.936 478.547,94.383 475.98,95.277C473.412,96.171 470.978,97.604 468.676,99.576L468.676,139.691L445.212,139.691Z" style="fill:white;fill-rule:nonzero;"/>
        <path d="M576.408,140.754C567.993,140.754 560.976,139.798 555.357,137.888C549.738,135.977 545.488,133.182 542.607,129.502C539.726,125.822 538.085,121.285 537.684,115.891L559.672,113.38C559.899,116.579 560.557,119.383 561.647,121.792C562.737,124.2 564.41,126.061 566.667,127.375C568.924,128.69 571.903,129.347 575.604,129.347C579.719,129.347 582.656,128.619 584.413,127.165C586.171,125.71 587.05,123.871 587.05,121.649C587.05,118.129 585.641,115.227 582.823,112.943C580.005,110.659 576.32,108.358 571.768,106.04L554.169,97.021C549.209,94.532 545.264,91.755 542.334,88.691C539.405,85.627 537.94,81.839 537.94,77.327C537.94,70.865 541.172,65.894 547.637,62.413C554.101,58.932 562.902,57.192 574.04,57.192C580.575,57.192 586.032,57.776 590.412,58.945C594.791,60.113 598.272,61.735 600.854,63.81C603.437,65.885 605.354,68.249 606.607,70.902C607.859,73.554 608.655,76.365 608.993,79.336L587.25,81.589C587.023,79.042 586.556,76.765 585.847,74.758C585.139,72.752 583.831,71.164 581.924,69.995C580.016,68.826 577.21,68.242 573.506,68.242C569.682,68.242 566.774,68.971 564.781,70.43C562.789,71.889 561.792,73.697 561.792,75.854C561.792,78.617 562.779,80.882 564.753,82.649C566.727,84.417 569.533,86.244 573.171,88.13L590.587,97.046C596.297,99.905 601.211,103.224 605.328,107.002C609.446,110.781 611.504,115.361 611.504,120.743C611.504,124.668 610.036,128.143 607.099,131.168C604.162,134.192 600.072,136.546 594.828,138.229C589.583,139.912 583.444,140.754 576.408,140.754Z" style="fill:white;fill-rule:nonzero;"/>
        <path d="M651.354,140.601C643.657,140.601 637.47,139.739 632.794,138.016C628.118,136.293 624.719,133.841 622.597,130.662C620.475,127.482 619.414,123.714 619.414,119.358L619.414,101.855C619.414,97.334 620.489,93.492 622.639,90.329C624.789,87.165 628.202,84.747 632.878,83.073C637.554,81.4 643.712,80.563 651.354,80.563C658.546,80.563 664.394,81.226 668.899,82.55C673.404,83.875 676.702,85.862 678.793,88.513C680.883,91.163 681.929,94.485 681.929,98.479L681.929,103.308L659.835,103.308L659.835,98.171C659.835,96.139 659.562,94.549 659.016,93.401C658.471,92.253 657.583,91.43 656.354,90.931C655.125,90.433 653.486,90.184 651.437,90.184C649.276,90.184 647.568,90.492 646.313,91.107C645.059,91.722 644.188,92.744 643.699,94.173C643.211,95.601 642.967,97.562 642.967,100.055L642.967,121.402C642.967,125.158 643.639,127.685 644.982,128.982C646.325,130.28 648.535,130.928 651.61,130.928C653.885,130.928 655.608,130.63 656.78,130.033C657.952,129.436 658.754,128.547 659.186,127.367C659.619,126.186 659.835,124.761 659.835,123.091L659.835,116.797L681.929,116.797L681.929,122.386C681.929,126.28 680.855,129.595 678.706,132.328C676.558,135.062 673.232,137.124 668.727,138.515C664.221,139.906 658.431,140.601 651.354,140.601Z" style="fill:white;fill-rule:nonzero;"/>
        <path d="M693.035,139.691L693.035,81.473L716.496,81.473L716.496,139.691L693.035,139.691ZM692.946,72.187L692.946,60.854L716.496,60.854L716.496,72.187L692.946,72.187Z" style="fill:white;fill-rule:nonzero;"/>
        <path d="M762.105,140.601C754.575,140.601 748.443,139.781 743.708,138.14C738.974,136.499 735.491,134.088 733.258,130.907C731.025,127.726 729.909,123.86 729.909,119.309L729.909,101.855C729.909,97.204 731.039,93.305 733.3,90.158C735.56,87.011 739.087,84.625 743.878,83C748.67,81.376 754.746,80.563 762.105,80.563C769.973,80.563 776.13,81.432 780.576,83.169C785.021,84.906 788.189,87.437 790.079,90.764C791.97,94.09 792.915,98.129 792.915,102.878L792.915,111.199L753.195,111.199L753.195,122.623C753.195,124.523 753.524,126.073 754.182,127.273C754.84,128.473 755.841,129.347 757.183,129.897C758.526,130.446 760.194,130.721 762.189,130.721C764.237,130.721 765.892,130.438 767.152,129.874C768.413,129.309 769.332,128.47 769.909,127.356C770.486,126.242 770.775,124.849 770.775,123.179L770.775,118.302L792.831,118.302L792.831,122.285C792.831,128.162 790.286,132.683 785.195,135.85C780.105,139.017 772.408,140.601 762.105,140.601ZM753.195,104.422L770.775,104.422L770.775,98.871C770.775,96.905 770.5,95.299 769.951,94.052C769.402,92.806 768.497,91.893 767.236,91.313C765.975,90.733 764.207,90.444 761.932,90.444C759.771,90.444 758.062,90.743 756.805,91.341C755.549,91.939 754.633,92.952 754.058,94.38C753.482,95.809 753.195,97.803 753.195,100.363L753.195,104.422Z" style="fill:white;fill-rule:nonzero;"/>
        <path d="M804.582,139.691L804.582,81.473L828.046,81.473L828.046,87.266C831.562,85.28 835.319,83.666 839.318,82.425C843.317,81.184 847.614,80.563 852.211,80.563C856.299,80.563 859.556,81.159 861.982,82.35C864.408,83.542 866.186,85.104 867.317,87.039C868.447,88.973 869.012,91.071 869.012,93.332L869.012,139.691L845.64,139.691L845.64,96.039C845.64,94.304 845.181,92.97 844.264,92.036C843.347,91.103 841.544,90.636 838.855,90.636C837.258,90.636 835.516,90.902 833.629,91.434C831.741,91.965 829.88,92.648 828.046,93.481L828.046,139.691L804.582,139.691Z" style="fill:white;fill-rule:nonzero;"/>
        <path d="M910.326,140.601C902.629,140.601 896.442,139.739 891.767,138.016C887.091,136.293 883.692,133.841 881.569,130.662C879.447,127.482 878.386,123.714 878.386,119.358L878.386,101.855C878.386,97.334 879.461,93.492 881.611,90.329C883.761,87.165 887.174,84.747 891.85,83.073C896.526,81.4 902.685,80.563 910.326,80.563C917.518,80.563 923.367,81.226 927.872,82.55C932.377,83.875 935.674,85.862 937.765,88.513C939.856,91.163 940.901,94.485 940.901,98.479L940.901,103.308L918.808,103.308L918.808,98.171C918.808,96.139 918.535,94.549 917.989,93.401C917.443,92.253 916.555,91.43 915.326,90.931C914.097,90.433 912.458,90.184 910.41,90.184C908.248,90.184 906.54,90.492 905.286,91.107C904.031,91.722 903.16,92.744 902.672,94.173C902.183,95.601 901.939,97.562 901.939,100.055L901.939,121.402C901.939,125.158 902.611,127.685 903.954,128.982C905.298,130.28 907.507,130.928 910.582,130.928C912.857,130.928 914.581,130.63 915.752,130.033C916.924,129.436 917.726,128.547 918.159,127.367C918.591,126.186 918.808,124.761 918.808,123.091L918.808,116.797L940.901,116.797L940.901,122.386C940.901,126.28 939.827,129.595 937.679,132.328C935.531,135.062 932.204,137.124 927.699,138.515C923.194,139.906 917.403,140.601 910.326,140.601Z" style="fill:white;fill-rule:nonzero;"/>
        <path d="M980.678,140.601C973.148,140.601 967.016,139.781 962.281,138.14C957.547,136.499 954.063,134.088 951.831,130.907C949.598,127.726 948.481,123.86 948.481,119.309L948.481,101.855C948.481,97.204 949.612,93.305 951.872,90.158C954.133,87.011 957.659,84.625 962.451,83C967.243,81.376 973.319,80.563 980.678,80.563C988.546,80.563 994.703,81.432 999.148,83.169C1003.59,84.906 1006.76,87.437 1008.65,90.764C1010.54,94.09 1011.49,98.129 1011.49,102.878L1011.49,111.199L971.767,111.199L971.767,122.623C971.767,124.523 972.097,126.073 972.755,127.273C973.413,128.473 974.413,129.347 975.756,129.897C977.098,130.446 978.767,130.721 980.761,130.721C982.81,130.721 984.464,130.438 985.725,129.874C986.986,129.309 987.905,128.47 988.482,127.356C989.059,126.242 989.348,124.849 989.348,123.179L989.348,118.302L1011.4,118.302L1011.4,122.285C1011.4,128.162 1008.86,132.683 1003.77,135.85C998.678,139.017 990.981,140.601 980.678,140.601ZM971.767,104.422L989.348,104.422L989.348,98.871C989.348,96.905 989.073,95.299 988.524,94.052C987.974,92.806 987.069,91.893 985.809,91.313C984.548,90.733 982.78,90.444 980.505,90.444C978.343,90.444 976.634,90.743 975.378,91.341C974.122,91.939 973.206,92.952 972.631,94.38C972.055,95.809 971.767,97.803 971.767,100.363L971.767,104.422Z" style="fill:white;fill-rule:nonzero;"/>
        <path d="M1050.21,140.601C1041.74,140.601 1034.81,139.289 1029.41,136.665C1024.02,134.041 1020.21,130.209 1017.97,125.168L1035.3,121.304C1036.69,124.443 1038.56,126.849 1040.89,128.522C1043.23,130.195 1046.2,131.032 1049.8,131.032C1052.55,131.032 1054.62,130.626 1056.02,129.813C1057.42,128.999 1058.12,127.895 1058.12,126.5C1058.12,124.89 1057.29,123.431 1055.64,122.123C1053.99,120.815 1051.13,119.178 1047.06,117.214L1035.05,111.251C1030.65,109.055 1027.09,106.805 1024.37,104.5C1021.66,102.196 1020.3,99.278 1020.3,95.749C1020.3,92.625 1021.54,89.928 1024.03,87.657C1026.51,85.386 1029.9,83.636 1034.21,82.407C1038.51,81.178 1043.31,80.563 1048.61,80.563C1056.89,80.563 1063.52,81.962 1068.49,84.76C1073.45,87.557 1076.7,91.21 1078.22,95.717L1062.34,99.528C1061.76,97.895 1060.92,96.384 1059.82,94.994C1058.72,93.605 1057.31,92.481 1055.59,91.625C1053.86,90.768 1051.76,90.34 1049.3,90.34C1046.9,90.34 1044.99,90.78 1043.56,91.66C1042.13,92.54 1041.41,93.631 1041.41,94.931C1041.41,96.076 1042.23,97.266 1043.87,98.5C1045.51,99.734 1047.91,101.115 1051.06,102.644L1063.23,109.098C1065.88,110.443 1068.44,111.889 1070.9,113.435C1073.35,114.982 1075.38,116.713 1076.97,118.627C1078.55,120.542 1079.35,122.742 1079.35,125.226C1079.35,128.551 1078.05,131.365 1075.45,133.668C1072.85,135.97 1069.35,137.701 1064.93,138.861C1060.52,140.021 1055.62,140.601 1050.21,140.601Z" style="fill:white;fill-rule:nonzero;"/>
    </g>
    <g transform="matrix(1,0,0,1,-203.5,3)">
        <path d="M1289.79,169.125C1291.52,167.189 1295.2,163.023 1295.2,163.023C1295.2,163.023 1296.3,161.318 1296.86,161.318C1297.42,161.318 1304.42,167.512 1304.89,168.535C1305.37,169.557 1308.5,174.267 1309.38,174.999C1310.26,175.731 1311.88,176.851 1311.12,177.622C1310.36,178.393 1300.58,177.85 1297.96,177.973C1295.36,178.096 1290.01,178.523 1287.3,178.424C1284.59,178.326 1281.87,178.384 1284.78,174.638C1287.68,170.891 1288.13,170.973 1289.79,169.125Z" style="fill:white;"/>
    </g>
    <path d="M1075.78,157.091C1073.06,158.726 1065.47,160.816 1065.47,160.816C1065.47,160.816 1057.95,161.971 1051.12,161.648C1044.12,161.316 1041.46,160.107 1041.46,160.107C1041.46,160.107 1035.53,159.098 1033.6,155.983C1031.67,152.869 1028.75,141.766 1028.75,141.766C1028.75,141.766 1025.6,133.808 1026.37,128.001C1027.15,122.195 1027.62,117.265 1027.62,117.265C1027.62,117.265 1029.55,110.016 1033.64,106.984C1037.74,103.952 1048.28,100.671 1052.13,100.619C1055.98,100.566 1061.54,101.18 1065.32,102.107C1069.11,103.035 1073.28,102.125 1075.21,103.463C1077.14,104.8 1082.58,108.903 1083.51,112.178C1084.45,115.454 1087.91,123.198 1087.22,127.865C1086.53,132.531 1084.62,134.128 1084.33,138.076C1084.04,142.024 1083.56,147.917 1081.82,151.007C1080.08,154.096 1078.23,155.621 1075.78,157.091Z" style="fill:white;"/>
    <g transform="matrix(0.395775,0.918347,-0.918347,0.395775,832.578,-891.021)">
        <path d="M1075.78,157.091C1073.06,158.726 1065.47,160.816 1065.47,160.816C1065.47,160.816 1057.95,161.888 1051.12,161.648C1043.69,161.386 1043.72,161.053 1043.72,161.053C1043.72,161.053 1035.53,159.098 1033.6,155.983C1031.67,152.869 1028.75,141.766 1028.75,141.766C1028.75,141.766 1025.6,133.808 1026.37,128.001C1027.15,122.195 1028.49,117.325 1028.49,117.325C1028.49,117.325 1029.55,110.016 1033.64,106.984C1037.74,103.952 1048.28,100.671 1052.13,100.619C1055.98,100.566 1061.54,101.18 1065.32,102.107C1069.11,103.035 1073.59,103.108 1075.52,104.446C1077.45,105.784 1082.58,108.903 1083.51,112.178C1084.45,115.454 1087.91,123.198 1087.22,127.865C1086.53,132.531 1084.62,134.128 1084.33,138.076C1084.04,142.024 1083.56,147.917 1081.82,151.007C1080.08,154.096 1078.23,155.621 1075.78,157.091Z" style="fill:white;"/>
    </g>
    <g transform="matrix(1,0,0,1,38.0115,-64.5872)">
        <path d="M1075.78,157.091C1073.06,158.726 1065.47,160.816 1065.47,160.816C1065.47,160.816 1057.6,163.826 1051.12,161.648C1044.65,159.469 1041.28,157.896 1041.28,157.896C1041.28,157.896 1036.14,155.515 1034.21,152.401C1032.28,149.287 1028.75,141.766 1028.75,141.766C1028.75,141.766 1025.6,133.808 1026.37,128.001C1027.15,122.195 1028.24,116.667 1028.24,116.667C1028.24,116.667 1029.55,110.016 1033.64,106.984C1037.74,103.952 1048.28,100.671 1052.13,100.619C1055.98,100.566 1061.54,101.18 1065.32,102.107C1069.11,103.035 1073.28,102.125 1075.21,103.463C1077.14,104.8 1082.58,108.903 1083.51,112.178C1084.45,115.454 1087.91,123.198 1087.22,127.865C1086.53,132.531 1084.62,134.128 1084.33,138.076C1084.04,142.024 1083.56,147.917 1081.82,151.007C1080.08,154.096 1078.23,155.621 1075.78,157.091Z" style="fill:white;"/>
    </g>
</svg>
