<?xml version="1.0" encoding="UTF-8" standalone="no"?>
<!DOCTYPE svg PUBLIC "-//W3C//DTD SVG 1.1//EN" "http://www.w3.org/Graphics/SVG/1.1/DTD/svg11.dtd">
<svg width="100%" height="100%" viewBox="0 0 400 400" version="1.1" xmlns="http://www.w3.org/2000/svg" xmlns:xlink="http://www.w3.org/1999/xlink" xml:space="preserve" xmlns:serif="http://www.serif.com/" style="fill-rule:evenodd;clip-rule:evenodd;stroke-linejoin:round;stroke-miterlimit:2;">
    <g transform="matrix(2.45855,0,0,2.45855,-144.55,-152.28)">
        <path d="M170.497,126.576C166.263,126.671 162.268,127.696 158.666,129.413C164.699,124.094 168.519,116.328 168.519,107.654C168.519,91.839 155.876,78.979 140.144,78.631C124.413,78.979 111.77,91.84 111.77,107.654C111.77,116.328 115.592,124.094 121.621,129.413C118.021,127.696 114.026,126.671 109.791,126.576C94.064,126.925 81.419,139.784 81.419,155.599C81.419,171.414 94.065,184.274 109.791,184.622C122.727,184.334 133.558,175.582 137.007,163.689C135.523,174.368 131.854,197.901 127.165,207.944L153.124,207.944C148.436,197.901 144.768,174.368 143.286,163.689C146.732,175.582 157.563,184.334 170.498,184.622C186.228,184.274 198.868,171.414 198.868,155.599C198.867,139.784 186.228,126.924 170.497,126.576Z" style="fill-rule:nonzero;"/>
    </g>
</svg>
