<?xml version="1.0" encoding="UTF-8" standalone="no"?>
<!DOCTYPE svg PUBLIC "-//W3C//DTD SVG 1.1//EN" "http://www.w3.org/Graphics/SVG/1.1/DTD/svg11.dtd">
<svg width="100%" height="100%" viewBox="0 0 400 400" version="1.1" xmlns="http://www.w3.org/2000/svg" xmlns:xlink="http://www.w3.org/1999/xlink" xml:space="preserve" xmlns:serif="http://www.serif.com/" style="fill-rule:evenodd;clip-rule:evenodd;stroke-linejoin:round;stroke-miterlimit:2;">
    <g transform="matrix(3.46485,0,0,3.46485,26.7576,26.7576)">
        <path d="M87.177,46.219L50,4.122L12.823,46.219C11.873,47.311 10.956,48.45 10.212,49.684C8.377,52.769 7.302,56.249 7.286,59.872L7.286,59.951C7.286,63.162 7.934,66.216 9.089,69.016C10.244,71.784 11.921,74.3 13.978,76.42C16.05,78.508 18.534,80.216 21.255,81.387C24.008,82.574 27.013,83.222 30.162,83.222C33.326,83.222 36.331,82.574 39.084,81.387C41.299,80.438 43.34,79.125 45.143,77.543C44.732,83.159 43.055,88.649 40.255,93.553L38.926,95.878L61.074,95.878L59.745,93.553C56.945,88.649 55.268,83.159 54.857,77.543C56.66,79.125 58.701,80.438 60.916,81.387C63.669,82.574 66.674,83.222 69.838,83.222C72.987,83.222 75.992,82.574 78.745,81.387C81.466,80.216 83.95,78.508 86.022,76.42C88.079,74.3 89.756,71.784 90.911,69.016C92.081,66.216 92.714,63.162 92.714,59.951L92.714,59.872C92.698,56.249 91.623,52.769 89.787,49.684C89.044,48.45 88.126,47.311 87.177,46.219Z" style="fill-rule:nonzero;"/>
    </g>
</svg>
