<?xml version="1.0" encoding="UTF-8" standalone="no"?>
<!DOCTYPE svg PUBLIC "-//W3C//DTD SVG 1.1//EN" "http://www.w3.org/Graphics/SVG/1.1/DTD/svg11.dtd">
<svg width="100%" height="100%" viewBox="0 0 148 148" version="1.1" xmlns="http://www.w3.org/2000/svg" xmlns:xlink="http://www.w3.org/1999/xlink" xml:space="preserve" xmlns:serif="http://www.serif.com/" style="fill-rule:evenodd;clip-rule:evenodd;stroke-linejoin:round;stroke-miterlimit:2;">
    <g transform="matrix(0.981804,0,0,0.981804,1.2438,0.536199)">
        <g transform="matrix(1.01327,0,0,1.01327,-1240.94,-32.3112)">
            <path d="M1289.79,169.125C1291.52,167.189 1295.2,163.023 1295.2,163.023C1295.2,163.023 1296.3,161.318 1296.86,161.318C1297.42,161.318 1304.42,167.512 1304.89,168.535C1305.37,169.557 1308.5,174.267 1309.38,174.999C1310.26,175.731 1311.88,176.851 1311.12,177.622C1310.36,178.393 1300.58,177.85 1297.96,177.973C1295.36,178.096 1290.01,178.523 1287.3,178.424C1284.59,178.326 1281.87,178.384 1284.78,174.638C1287.68,170.891 1288.13,170.973 1289.79,169.125Z" style="fill:rgb(215,44,38);"/>
        </g>
        <g transform="matrix(1.01327,0,0,1.01327,-1034.74,-35.351)">
            <path d="M1075.78,157.091C1073.06,158.726 1065.47,160.816 1065.47,160.816C1065.47,160.816 1057.95,161.971 1051.12,161.648C1044.12,161.316 1041.46,160.107 1041.46,160.107C1041.46,160.107 1035.53,159.098 1033.6,155.983C1031.67,152.869 1028.75,141.766 1028.75,141.766C1028.75,141.766 1025.6,133.808 1026.37,128.001C1027.15,122.195 1027.62,117.265 1027.62,117.265C1027.62,117.265 1029.55,110.016 1033.64,106.984C1037.74,103.952 1048.28,100.671 1052.13,100.619C1055.98,100.566 1061.54,101.18 1065.32,102.107C1069.11,103.035 1073.28,102.125 1075.21,103.463C1077.14,104.8 1082.58,108.903 1083.51,112.178C1084.45,115.454 1087.91,123.198 1087.22,127.865C1086.53,132.531 1084.62,134.128 1084.33,138.076C1084.04,142.024 1083.56,147.917 1081.82,151.007C1080.08,154.096 1078.23,155.621 1075.78,157.091Z" style="fill:rgb(215,44,38);"/>
        </g>
        <g transform="matrix(0.401026,0.930531,-0.930531,0.401026,-191.118,-938.193)">
            <path d="M1075.78,157.091C1073.06,158.726 1065.47,160.816 1065.47,160.816C1065.47,160.816 1057.95,161.888 1051.12,161.648C1043.69,161.386 1043.72,161.053 1043.72,161.053C1043.72,161.053 1035.53,159.098 1033.6,155.983C1031.67,152.869 1028.75,141.766 1028.75,141.766C1028.75,141.766 1025.6,133.808 1026.37,128.001C1027.15,122.195 1028.49,117.325 1028.49,117.325C1028.49,117.325 1029.55,110.016 1033.64,106.984C1037.74,103.952 1048.28,100.671 1052.13,100.619C1055.98,100.566 1061.54,101.18 1065.32,102.107C1069.11,103.035 1073.59,103.108 1075.52,104.446C1077.45,105.784 1082.58,108.903 1083.51,112.178C1084.45,115.454 1087.91,123.198 1087.22,127.865C1086.53,132.531 1084.62,134.128 1084.33,138.076C1084.04,142.024 1083.56,147.917 1081.82,151.007C1080.08,154.096 1078.23,155.621 1075.78,157.091Z" style="fill:rgb(215,44,38);"/>
        </g>
        <g transform="matrix(1.01327,0,0,1.01327,-996.227,-100.795)">
            <path d="M1075.78,157.091C1073.06,158.726 1065.47,160.816 1065.47,160.816C1065.47,160.816 1057.6,163.826 1051.12,161.648C1044.65,159.469 1041.28,157.896 1041.28,157.896C1041.28,157.896 1036.14,155.515 1034.21,152.401C1032.28,149.287 1028.75,141.766 1028.75,141.766C1028.75,141.766 1025.6,133.808 1026.37,128.001C1027.15,122.195 1028.24,116.667 1028.24,116.667C1028.24,116.667 1029.55,110.016 1033.64,106.984C1037.74,103.952 1048.28,100.671 1052.13,100.619C1055.98,100.566 1061.54,101.18 1065.32,102.107C1069.11,103.035 1073.28,102.125 1075.21,103.463C1077.14,104.8 1082.58,108.903 1083.51,112.178C1084.45,115.454 1087.91,123.198 1087.22,127.865C1086.53,132.531 1084.62,134.128 1084.33,138.076C1084.04,142.024 1083.56,147.917 1081.82,151.007C1080.08,154.096 1078.23,155.621 1075.78,157.091Z" style="fill:rgb(215,44,38);"/>
        </g>
    </g>
</svg>
